<svg width="38" height="38" xmlns="http://www.w3.org/2000/svg" xmlns:xlink="http://www.w3.org/1999/xlink" xml:space="preserve" overflow="hidden"><g transform="translate(-858 -269)"><path d="M891.844 298.925 886.896 293.977C886.223 293.304 885.312 293.067 884.442 293.225L882.7 291.483C884.244 289.504 885.154 286.971 885.154 284.279 885.154 277.748 879.81 272.404 873.279 272.404 866.748 272.404 861.404 277.748 861.404 284.279 861.404 290.81 866.748 296.154 873.279 296.154 875.971 296.154 878.465 295.244 880.483 293.7L882.225 295.442C882.067 296.312 882.304 297.223 882.977 297.896L887.925 302.844C888.479 303.398 889.192 303.675 889.904 303.675 890.617 303.675 891.329 303.398 891.883 302.844 892.912 301.735 892.912 299.994 891.844 298.925ZM873.24 293.74C868.015 293.74 863.74 289.465 863.74 284.24 863.74 279.015 868.015 274.74 873.24 274.74 878.465 274.74 882.74 279.015 882.74 284.24 882.74 289.465 878.465 293.74 873.24 293.74Z" fill="#2DD4BF" fill-opacity="0.251964"/></g></svg>